<svg id="Content" xmlns="http://www.w3.org/2000/svg" viewBox="0 0 621.989 181.749">
  <defs>
    <style>
      .interest-1 {
        fill: #47a1da;
      }

      .interest-2 {
        fill: #fff;
      }

      .interest-3 {
        fill: #e2e9ed;
      }
    </style>
  </defs>
  <title>interest</title>
  <circle class="interest-1" cx="90" cy="90" r="90"/>
  <circle class="interest-1" cx="312" cy="90" r="90"/>
  <circle class="interest-1" cx="531" cy="90" r="90"/>
  <g>
    <path class="interest-2" d="M257.323,93.375q0-16.266,0-32.533c0-2.572,0-2.572,2.54-2.595,2.2-.02,2.266-0.017,2.352-2.233a1.7,1.7,0,0,1,1.721-1.74c5.884-1.044,11.742-2.291,17.664-3.037a99.648,99.648,0,0,1,13.716-.661c5.68,0.074,11.3.772,16.395,3.686a2.276,2.276,0,0,0,1.929-.1c4.352-2.617,9.181-3.41,14.107-3.638,11.342-.527,22.477,1.023,33.5,3.587,1.507,0.351,2.432.911,2.232,2.665-0.127,1.118.658,1.427,1.665,1.472,3.183,0.143,3.183.163,3.183,3.409q0,32.047,0,64.095c0,2.663-.008,2.669-2.67,2.669q-20.96,0-41.921-.018c-1.462,0-2.562.117-2.586,1.979a1.6,1.6,0,0,1-1.222.892c-5.07.063-10.142,0.072-15.212-.011a1.778,1.778,0,0,1-1.284-1.167c-0.092-1.529-.952-1.688-2.178-1.687q-20.475.029-40.949,0.009a5.017,5.017,0,0,1-1.762-.072,2.268,2.268,0,0,1-1.151-1.165,5.083,5.083,0,0,1-.072-1.763Q257.32,109.4,257.323,93.375Z"/>
    <path class="interest-1" d="M360,88.707q0,14.487,0,28.973c0,2.283-.17,2.39-2.453,1.892-9.078-1.978-18.214-3.5-27.551-3.337-5.218.091-10.329,0.7-14.989,3.328-0.988.557-1.4,0.15-1.419-.878-0.006-.378-0.006-0.755-0.006-1.133,0-18.992.025-37.984-.046-56.975a3.966,3.966,0,0,1,2.35-3.979,24.776,24.776,0,0,1,9.622-2.576c11.085-.969,21.929.78,32.73,3,1.382,0.284,1.789,1.04,1.784,2.393C359.984,69.175,360,78.941,360,88.707Z"/>
    <path class="interest-1" d="M265.643,88.566c0-9.709.028-19.418-.031-29.127a2.186,2.186,0,0,1,2.056-2.514c9.8-2.015,19.656-3.376,29.686-2.921a30.787,30.787,0,0,1,11.764,2.6,3.15,3.15,0,0,1,2.059,3.251q-0.077,28.8-.036,57.607c0,2.407-.083,2.446-2.332,1.381-5.162-2.443-10.688-2.912-16.267-2.775a116.334,116.334,0,0,0-24.908,3.613c-1.654.406-1.985,0.117-1.987-1.666Q265.636,103.292,265.643,88.566Z"/>
    <path class="interest-1" d="M307.007,122.389H274C279.374,119.819,302.663,117.627,307.007,122.389Z"/>
    <path class="interest-1" d="M318.41,121.831a17.665,17.665,0,0,1,2.206-1.016,35.882,35.882,0,0,1,13.272-1.28c5.144,0.378,10.257,1.18,15.379,1.831a15.388,15.388,0,0,1,2.106.568l-0.064.433H318.557Z"/>
  </g>
  <path class="interest-2" d="M481.593,119.279V72.853a8.747,8.747,0,0,1,2.225-6,9.33,9.33,0,0,1,5.513-3.1l13.348-2.321L506.934,50.8a9.458,9.458,0,0,1,3.482-4.256A9.2,9.2,0,0,1,515.639,45H546.59a9.2,9.2,0,0,1,5.223,1.548A9.458,9.458,0,0,1,555.3,50.8l4.256,10.639L572.9,63.761a9.329,9.329,0,0,1,5.513,3.1,8.747,8.747,0,0,1,2.225,6v46.426a9.247,9.247,0,0,1-9.285,9.285H490.879a9.247,9.247,0,0,1-9.285-9.285h0Zm6.19,0a2.98,2.98,0,0,0,3.1,3.1h80.472a2.98,2.98,0,0,0,3.1-3.1V72.853a2.754,2.754,0,0,0-2.515-3.1L555.1,67.05l-5.61-13.928a2.871,2.871,0,0,0-2.9-1.934H515.64a2.871,2.871,0,0,0-2.9,1.934l-5.61,13.928L490.3,69.758a2.754,2.754,0,0,0-2.515,3.1v46.426h0Zm18.571-27.856a24.761,24.761,0,1,1,42.267,17.507,24.761,24.761,0,0,1-42.267-17.507h0Zm6.19,1.451a17.831,17.831,0,0,0,6.48,12.671,18.029,18.029,0,0,0,13.541,4.449,17.831,17.831,0,0,0,12.671-6.48,18.029,18.029,0,0,0,4.449-13.541A17.831,17.831,0,0,0,543.2,77.3a18.03,18.03,0,0,0-13.541-4.449,17.831,17.831,0,0,0-12.671,6.48,18.03,18.03,0,0,0-4.449,13.541h0Zm6.19-1.451a12.058,12.058,0,0,1,3.579-8.7,11.8,11.8,0,0,1,8.8-3.675,1.548,1.548,0,1,1,0,3.1,9.247,9.247,0,0,0-9.285,9.285,1.548,1.548,0,1,1-3.1,0h0Z"/>
  <g>
    <path class="interest-3" d="M112.155,77.775L162.967,71.6c-1.653,5.262-5.263,6.761-9.1,7.463-6.4,1.171-12.882,1.921-19.331,2.838-4.4.625-8.941,0.74-13.159,1.973C115.857,85.484,113.518,83.076,112.155,77.775Z"/>
    <path class="interest-3" d="M69.487,77.764c-1.373,5.863-4.3,7.163-9.735,6.1-10.6-2.068-21.394-3.09-32.062-4.831-3.766-.615-7.356-2.112-8.908-7.406Z"/>
    <path class="interest-3" d="M30.371,83.191l34.946,5.076L64.54,95.24c-9.744-1.9-19.3-3.54-28.72-5.765-2.364-.559-4.282-3-6.405-4.582Z"/>
    <path class="interest-3" d="M152.308,83.023c-2.224,5.35-5.952,6.571-9.832,7.576-0.286.074-.582,0.108-0.874,0.16l-24.4,4.293-0.98-6.735Z"/>
    <path class="interest-3" d="M41.413,94.591c7.549,1.427,15.013,2.447,22.2,4.457,1.921,0.537,3,4.1,4.708,6.638C55.309,106.107,42.819,100.987,41.413,94.591Z"/>
    <path class="interest-3" d="M140.99,95.628c-6.633,9.57-17.723,7.122-26.586,11.088,1.24-7.615,1.241-7.6,7.953-8.772,5.812-1.011,11.62-2.052,17.432-3.065A5.768,5.768,0,0,1,140.99,95.628Z"/>
    <path class="interest-3" d="M91.05,71.225a22.4,22.4,0,1,0,22.362,22.428A22.541,22.541,0,0,0,91.05,71.225Zm8.032,34.343c-5.812-4.768-10.828-4.33-16.269.007,1.968-6.516,1.638-11.841-5.435-15.225,7.26,0.01,11.729-2.6,13.331-9.719,2.234,6.4,5.685,10.435,13.312,9.224C98.836,94.16,95.3,98.424,99.082,105.568Z"/>
  </g>
</svg>
