<svg id="skillsSVG" xmlns="http://www.w3.org/2000/svg" viewBox="0 0 646.329 366.639">
  <defs>
    <style>
      .skillsBar {
        -webkit-transform: scaleY(0);
        -moz-transform: scaleY(0);
        -o-transform: scaleY(0);
        transform: scaleY(0);
      }

      .skillsText {
        opacity: 0;
      }

      .skillsIcon {
        opacity: 0;
      }

      .cls-1, .cls-2, .cls-6, .cls-9 {
        fill: none;
        stroke-miterlimit: 10;
      }

      .cls-1, .cls-2 {
        stroke: #dadde0;
      }

      .cls-1, .cls-2, .cls-9 {
        stroke-width: 2px;
      }

      .cls-2 {
        stroke-dasharray: 8.105 8.105;
      }

      .cls-3 {
        fill: #47a1da;
      }

      .cls-4 {
        font-size: 24px;
        font-weight: 100;
      }

      .cls-4, .cls-7, .cls-8 {
        fill: #fff;
      }

      .cls-4, .cls-7 {
        font-family: Source Sans Pro;
      }

      .cls-5 {
        letter-spacing: -1px;
      }

      .cls-6, .cls-9 {
        stroke: #fff;
      }

      .cls-6 {
        stroke-width: 3px;
      }

      .cls-7 {
        font-size: 22px;
      }
    </style>
  </defs>
  <title>skills</title>
  <g>
    <line class="cls-1" x1="158.316" y1="185.909" x2="162.316" y2="185.909"/>
    <line class="cls-2" x1="170.422" y1="185.909" x2="636.488" y2="185.909"/>
    <line class="cls-1" x1="640.54" y1="185.909" x2="644.54" y2="185.909"/>
  </g>
  <g>
    <line class="cls-1" x1="158.316" y1="245.652" x2="162.316" y2="245.652"/>
    <line class="cls-2" x1="170.422" y1="245.652" x2="636.488" y2="245.652"/>
    <line class="cls-1" x1="640.54" y1="245.652" x2="644.54" y2="245.652"/>
  </g>
  <g>
    <line class="cls-1" x1="160.105" y1="126.165" x2="164.105" y2="126.165"/>
    <line class="cls-2" x1="172.21" y1="126.165" x2="638.276" y2="126.165"/>
    <line class="cls-1" x1="642.329" y1="126.165" x2="646.329" y2="126.165"/>
  </g>
  <g>
    <line class="cls-1" x1="158.316" y1="305.396" x2="162.316" y2="305.396"/>
    <line class="cls-2" x1="170.422" y1="305.396" x2="636.488" y2="305.396"/>
    <line class="cls-1" x1="640.54" y1="305.396" x2="644.54" y2="305.396"/>
  </g>
  <rect id="skillsBar-1" class="cls-3 skillsBar" x="201.008" y="70.213" width="36.765" height="294.662"/>
  <text id="skillsText-1" class="cls-4 skillsText" transform="translate(226.846 340.077) rotate(-90)">Web &amp; Mobile Design</text>
  <rect id="skillsBar-2" class="cls-3 skillsBar" x="291.389" y="70.213" width="36.765" height="293.356"/>
  <text id="skillsText-2" class="cls-4 skillsText" transform="translate(316.609 340.077) rotate(-90)">Data Visulization</text>
  <rect id="skillsBar-3" class="cls-3 skillsBar" x="381.77" y="127.596" width="36.765" height="235.973"/>
  <text id="skillsText-3" class="cls-4 skillsText" transform="translate(406.607 340.077) rotate(-90)">Visual Design</text>
  <rect id="skillsBar-4" class="cls-3 skillsBar" x="474.066" y="127.596" width="36.765" height="235.973"/>
  <text id="skillsText-4" class="cls-4 skillsText" transform="translate(497.904 340.077) rotate(-90)">Usability Testing</text>
  <rect id="skillsBar-5" class="cls-3 skillsBar" x="567.946" y="127.596" width="36.765" height="235.942"/>
  <text id="skillsText-5" class="cls-4 skillsText" transform="translate(593.315 340.077) rotate(-90)">Web Development</text>
  <line class="cls-6" x1="158.316" y1="365.139" x2="646.329" y2="365.139"/>
  <text class="cls-7" transform="translate(78.104 310.042)">N<tspan x="14.124" y="0">o</tspan><tspan x="25.96" y="0">vi</tspan><tspan x="41.646" y="0">c</tspan><tspan x="51.215" y="0">e</tspan></text>
  <text class="cls-7" transform="translate(21.357 249.552)">In<tspan x="17.709" y="0">t</tspan><tspan x="24.926" y="0">ermedia</tspan><tspan x="101.506" y="0">t</tspan><tspan x="108.722" y="0">e</tspan></text>
  <g>
    <line class="cls-1" x1="160.105" y1="68.907" x2="164.105" y2="68.907"/>
    <line class="cls-2" x1="172.21" y1="68.907" x2="638.276" y2="68.907"/>
    <line class="cls-1" x1="642.329" y1="68.907" x2="646.329" y2="68.907"/>
  </g>
  <text class="cls-7" transform="translate(47.744 191.169)">Ad<tspan x="24.046" y="0">v</tspan><tspan x="33.88" y="0">an</tspan><tspan x="57.178" y="0">c</tspan><tspan x="66.748" y="0">ed</tspan></text>
  <text class="cls-7" transform="translate(60.673 131.425)">Superior</text>
  <text class="cls-7" transform="translate(9.889 74.167)">Distinguished</text>
  <g id="skillsIcon-1" class="skillsIcon">
    <path class="cls-8" d="M200.195,44.107h0.812l11.224,0c1.057,0,1.208.128,1.4,1.187a0.894,0.894,0,0,0,1.059.738q4.862-.007,9.724,0c0.26,0,.52,0,0.78,0a0.858,0.858,0,0,0,.94-0.87,0.96,0.96,0,0,1,1.154-1.047q5.252,0,10.5,0h0.8c0.011-.233.03-0.443,0.03-0.652q0-4.292,0-8.583c0-.1,0-0.2,0-0.3a0.96,0.96,0,0,1,.938-1.03,0.939,0.939,0,0,1,.948,1.017c0.012,1.841,0,3.681,0,5.522,0,1.317,0,2.633,0,4.027,0.62,0,1.193-.005,1.766,0a0.966,0.966,0,0,1,1.113,1.091c0.008,0.54.006,1.08,0,1.621a4.92,4.92,0,0,1-4.911,4.933q-19.177.012-38.354,0a4.966,4.966,0,0,1-4.715-4.581c-0.024-.679-0.016-1.361,0-2.041a0.945,0.945,0,0,1,1.06-1.023c0.56-.012,1.12-0.015,1.68-0.023a0.768,0.768,0,0,0,.138-0.062c0-.211,0-0.463,0-0.714q0-10.474,0-20.948a4.974,4.974,0,0,1,5.13-5.15q9.784,0.012,19.567,0a1.069,1.069,0,0,1,1.107.543,0.937,0.937,0,0,1-.928,1.343c-1.8.017-3.6,0.008-5.4,0.008q-7.323,0-14.645,0a2.74,2.74,0,0,0-2.933,2.871q-0.012,10.8,0,21.608C200.169,43.724,200.182,43.863,200.195,44.107Zm41.229,1.913C241.3,46.012,241.165,46,241.029,46c-4.261,0-8.523-.006-12.784.013a0.848,0.848,0,0,0-.585.35,3.163,3.163,0,0,1-2.791,1.565q-5.012-.029-10.023,0a2.963,2.963,0,0,1-2.69-1.5,0.8,0.8,0,0,0-.806-0.433Q204.567,46,197.785,46c-0.153,0-.305.027-0.449,0.04-0.353,2.608,1.073,3.863,3.341,3.855,12.544-.045,25.089-0.022,37.633-0.021C240.619,49.87,241.83,48.395,241.424,46.02Z"/>
    <path class="cls-8" d="M243.39,19.116q0,5.19,0,10.38a3.034,3.034,0,0,1-3.034,3.056q-6,0-12,0a3.01,3.01,0,0,1-3.183-3.2q0-10.29,0-20.579a3,3,0,0,1,3.059-3.08q6.06,0,12.119,0a3.013,3.013,0,0,1,3.034,3.045q0,5.19,0,10.379h0Zm-16.33.006h0q0,5.13,0,10.26c0,1.052.206,1.274,1.25,1.275q6.03,0.006,12.06,0A0.933,0.933,0,0,0,241.5,29.5q0-10.35,0-20.7c0-.964-0.249-1.218-1.195-1.218q-6.03,0-12.06,0c-0.932,0-1.183.247-1.184,1.164Q227.057,13.932,227.06,19.122Z"/>
    <path class="cls-8" d="M204.011,22.944c0,2.49,0,4.887,0,7.285q0,5.85,0,11.7a0.966,0.966,0,1,1-1.888.024q0-9.78,0-19.56c0-1.07.269-1.335,1.351-1.336q9.78,0,19.56,0a0.977,0.977,0,0,1,1.143.944,0.963,0.963,0,0,1-1.137.944q-8.91,0-17.82,0h-1.209Z"/>
    <path class="cls-8" d="M234.777,38.267c0-1.179,0-2.358,0-3.538a0.965,0.965,0,1,1,1.885-.03q0,3.628,0,7.255a0.965,0.965,0,1,1-1.885-.03C234.774,40.705,234.777,39.486,234.777,38.267Z"/>
    <path class="cls-8" d="M234.271,10.457c-0.479,0-.96.017-1.438,0a0.929,0.929,0,0,1-.936-0.9,0.919,0.919,0,0,1,.924-0.971c0.958-.025,1.918-0.022,2.876-0.006a0.94,0.94,0,1,1,.012,1.88C235.23,10.472,234.75,10.458,234.271,10.457Z"/>
    <path class="cls-8" d="M234.284,26.713a1.771,1.771,0,0,1,1.52,1.534,1.527,1.527,0,0,1-3.055-.011A1.782,1.782,0,0,1,234.284,26.713Z"/>
  </g>
  <g id="skillsIcon-2" class="skillsIcon">
    <path class="cls-9" d="M306.355,11.927A3.339,3.339,0,0,1,309.046,8.2a3.466,3.466,0,0,1,3.944,1.966,1.464,1.464,0,0,0,1.272.933,9.117,9.117,0,0,1,1.395.26,1.722,1.722,0,0,0,1.911-.429,3.343,3.343,0,0,1,3.137-.708,1.718,1.718,0,0,0,1.252-.254c1.268-.96,2.5-1.977,3.683-3.037a1.824,1.824,0,0,0,.545-1.165,3.6,3.6,0,1,1,7.162.471,3.5,3.5,0,0,1-4.289,2.974,1.728,1.728,0,0,0-1.711.464c-0.764.669-1.557,1.306-2.349,1.942-0.913.734-1.759,1.351-1.734,2.825,0.025,1.447-1.378,2.559-2.9,2.85a3.446,3.446,0,0,1-3.628-1.689,1.816,1.816,0,0,0-1.63-1.106,6.441,6.441,0,0,1-1.292-.257,1.869,1.869,0,0,0-1.945.379,3.335,3.335,0,0,1-2.971.628,1.663,1.663,0,0,0-1.18.268q-1.962,1.446-3.821,3.027a1.625,1.625,0,0,0-.494,1.077,3.682,3.682,0,0,1-4.953,3.5,2.436,2.436,0,0,0-1.468.146,12.192,12.192,0,0,0-1.593.888c-1.108.611-2.052,1.154-2.3,2.712-0.3,1.914-2.526,2.9-4.4,2.32a3.585,3.585,0,0,1-2.378-4.522,3.492,3.492,0,0,1,4.422-2.349,2.02,2.02,0,0,0,1.963-.262,19.054,19.054,0,0,1,1.84-1.076,2.929,2.929,0,0,0,1.824-2.243c0.364-1.941,2.295-2.888,4.345-2.509a1.8,1.8,0,0,0,1.249-.271c1.206-.873,2.375-1.8,3.5-2.773A6.18,6.18,0,0,0,306.355,11.927Z"/>
    <path class="cls-9" d="M325.821,36.732q0-6.194,0-12.389c0-1.918.7-2.6,2.642-2.616,1.015-.006,2.032-0.031,3.046.008a2.056,2.056,0,0,1,2.252,2.288q0.017,12.744,0,25.488a2.018,2.018,0,0,1-2.287,2.232q-1.675.024-3.351,0a2.031,2.031,0,0,1-2.3-2.32C325.81,45.194,325.821,40.963,325.821,36.732Z"/>
    <path class="cls-9" d="M305.759,38.759q0-5.13,0-10.26c0-2.057.686-2.736,2.738-2.74,0.948,0,1.9-.008,2.844,0a2.137,2.137,0,0,1,2.44,2.423c0.024,1.523.005,3.047,0.005,4.571q0,8.076,0,16.151c0,2.194-.65,2.84-2.841,2.841-0.914,0-1.829.007-2.743,0-1.683-.017-2.435-0.777-2.441-2.524C305.749,45.735,305.759,42.247,305.759,38.759Z"/>
    <path class="cls-9" d="M323.78,40.784c0,2.811.005,5.621,0,8.432,0,1.824-.705,2.521-2.523,2.532-1.016.006-2.032,0.009-3.048,0-1.624-.015-2.371-0.709-2.416-2.332-0.041-1.489-.012-2.98-0.012-4.47q0-6.2,0-12.394c0-2.165.622-2.774,2.785-2.782,0.914,0,1.829-.011,2.743,0,1.758,0.027,2.462.729,2.468,2.478C323.787,35.094,323.78,37.939,323.78,40.784Z"/>
    <path class="cls-9" d="M295.767,41.709c0-2.5-.009-5.009,0-7.513,0.007-1.626.711-2.379,2.316-2.436,1.149-.041,2.3-0.045,3.451.005a2.008,2.008,0,0,1,2.209,2.22q0.055,7.766,0,15.533a2.021,2.021,0,0,1-2.3,2.227q-1.675.024-3.35,0a2.067,2.067,0,0,1-2.319-2.32C295.753,46.853,295.767,44.281,295.767,41.709Z"/>
    <path class="cls-9" d="M285.778,43.736c0-1.828-.008-3.656,0-5.484,0.01-1.773.746-2.494,2.548-2.508,1.049-.008,2.1-0.028,3.148.006a2.044,2.044,0,0,1,2.243,2.29q0.028,5.738,0,11.476a2.009,2.009,0,0,1-2.283,2.229c-1.151.016-2.3,0.022-3.453,0a2,2,0,0,1-2.2-2.218C285.76,47.6,285.778,45.666,285.778,43.736Z"/>
  </g>
  <g id="skillsIcon-3" class="skillsIcon">
    <path class="cls-9" d="M402.7,7.749a27.347,27.347,0,0,1,4.332.916c7.428,2.137,13.052,6.434,15.851,13.828,1.633,4.315,1.9,8.726-.443,12.924a13.007,13.007,0,0,1-11.471,6.969c-1.583.069-3.172,0.019-4.758,0.013a3.987,3.987,0,0,0-3.188,6.559,3.906,3.906,0,0,1,.652,4.5,4,4,0,0,1-3.964,2.248,23.99,23.99,0,0,1-4.177-47.535c0.6-.124,1.148-0.243,2.08-0.355C399.434,7.749,400.882,7.749,402.7,7.749Zm-9.235,5.361a3.968,3.968,0,1,0-.058,7.936A3.968,3.968,0,1,0,393.465,13.11Zm25.245,14.6a3.968,3.968,0,1,0-3.946,4.008A3.944,3.944,0,0,0,418.71,27.708Zm-29.291.039a3.968,3.968,0,1,0-7.936-.044A3.968,3.968,0,0,0,389.419,27.747Zm17.355-14.638a3.969,3.969,0,1,0,3.987,3.979A4,4,0,0,0,406.773,13.109Z"/>
  </g>
  <g id="skillsIcon-4" class="skillsIcon">
    <path class="cls-8" d="M512.37,3.283l0.562,1.18,0.146,0.452,0.24,1.511,0,0.587a11.557,11.557,0,0,1-.4,2.1l-0.346.805a8.072,8.072,0,0,1-2.9,2.9l-0.81.345a11.322,11.322,0,0,1-2.1.4l-0.588,0-1.51-.24-0.452-.146-1.18-.562-0.349-.232-0.838-.7-0.446-.462-0.6-.821L500.5,9.9,500.016,8.76a0.6,0.6,0,0,0-.113-0.466l-0.143-1.624,0.013-.589a15.44,15.44,0,0,1,.6-2.206h-0.009l0.149-.239,1.043-1.506,0.331-.331L503.4,0.758l0.238-.149,0.006,0.014a14.013,14.013,0,0,1,2.2-.61L506.43,0l1.624,0.143a0.82,0.82,0,0,0,.447.142l1.159,0.455,0.5,0.307L511.193,1.8l0.09,0.09,0.855,1.039Zm-9.548,6.639a0.737,0.737,0,0,0,.337.354,2.374,2.374,0,0,0,.929.706,0.792,0.792,0,0,0,.466.234,2.741,2.741,0,0,0,1.394.38,0.666,0.666,0,0,0,.481.064,4.875,4.875,0,0,0,4.989-4.989,0.669,0.669,0,0,0-.063-0.481,2.753,2.753,0,0,0-.38-1.394,0.81,0.81,0,0,0-.234-0.467,2.373,2.373,0,0,0-.706-0.929,0.749,0.749,0,0,0-.355-0.336,2.375,2.375,0,0,0-.912-0.6,1.032,1.032,0,0,0-.58-0.25,3.1,3.1,0,0,0-1.418-.3l-0.7.006a4.84,4.84,0,0,0-4.4,4.4l-0.006.7a3.367,3.367,0,0,0,.29,1.424,1.187,1.187,0,0,0,.259.575A2.39,2.39,0,0,0,502.822,9.923Z"/>
    <path class="cls-8" d="M493.5,14.475l0.006-1.745-0.006-.587A1.758,1.758,0,0,0,492.95,11a0.161,0.161,0,0,1-.173-0.116,5.654,5.654,0,0,0-1.626-.15l-0.587-.006-1.745.006-0.587-.006-1.745.006-0.587-.006-1.745.006-0.587-.006-1.745.006-0.587-.006-1.745.006-0.587-.006-1.745.006-0.587-.006-1.745.006-0.587-.006-1.745.006-0.587-.006-1.745.006-0.7.148-0.574.575-0.148.695-0.006,1.745,0.006,0.587-0.006,1.745,0.006,0.587-0.006,1.745,0.006,0.587-0.006,1.745,0.006,0.587-0.006,1.745,0.006,0.587-0.006,1.745,0.006,0.587-0.006,1.745,0.006,0.587-0.006,1.745,0.006,0.587-0.006,1.745,0.006,0.587-0.006,1.745,0.006,0.587-0.006,1.745,0.006,0.587-0.006,1.745,0.006,0.587-0.006,1.745,0.006,0.587-0.006,1.745,0.006,0.587-0.006,1.745,0.006,0.587-0.006,1.745,0.006,0.587L468.741,51.2l0.006,0.587a5.709,5.709,0,0,0,.149,1.627l0.125,0.18a1.735,1.735,0,0,0,1.14.54l0.587,0.006,1.745-.006,0.587,0.006,1.745-.006,0.587,0.006,1.745-.006,0.587,0.006,1.745-.006,0.587,0.006,1.745-.006,0.587,0.006,1.745-.006,0.587,0.006,1.745-.006,0.587,0.006,1.745-.006,0.587,0.006,1.745-.006,0.587,0.006c1.323-.086,1.684-0.447,1.77-1.77l-0.006-.587L493.5,50.04l-0.006-.587,0.006-1.745-0.006-.587,0.006-1.745-0.006-.587,0.006-1.745-0.006-.587q0-.873.006-1.745l-0.006-.587L493.5,38.38l-0.006-.587q0-.873.006-1.745l-0.006-.587q0-.873.006-1.745L493.5,33.13q0-.873.006-1.745L493.5,30.8q0-.873.006-1.745l-0.006-.587,0.006-1.745-0.006-.587q0-.873.006-1.745L493.5,23.8l0.006-1.745L493.5,21.47q0-.873.006-1.745l-0.006-.587,0.006-1.745-0.006-.587q0-.873.006-1.745ZM481.107,52.255a0.954,0.954,0,0,1-.915-0.937,0.94,0.94,0,0,1,.917-0.929A0.933,0.933,0,1,1,481.107,52.255ZM490.1,48.5l-1.745.006-0.587-.006-1.745.006-0.587-.006-1.745.006L483.1,48.5l-1.745.006-0.587-.006-1.745.006-0.587-.006-1.745.006-0.587-.006-1.745.006-0.587-.006-1.745.006q-0.6.144-.451-0.451l0.006-1.745-0.006-.587,0.006-1.745-0.006-.587,0.006-1.745-0.006-.587,0.006-1.745-0.006-.587,0.006-1.745-0.006-.587,0.006-1.745-0.006-.587,0.006-1.745-0.006-.587,0.006-1.745-0.006-.587,0.006-1.745-0.006-.587,0.006-1.745-0.006-.587,0.006-1.745-0.006-.587,0.006-1.745-0.006-.587,0.006-1.745-0.006-.587,0.006-1.745-0.006-.587c0.01-.61-0.279-1.425.112-1.769,0.339-.3,1.139-0.072,1.735-0.078l0.587,0.006,1.745-.006,0.587,0.006,1.745-.006,0.587,0.006,1.745-.006,0.587,0.006,1.745-.006,0.587,0.006,1.745-.006,0.587,0.006,1.745-.006L488,13.566l1.745-.006,0.587,0.006c0.229-.057.366-0.022,0.352,0.269-0.024.484-.019,0.97-0.027,1.455l0.006,0.587q0,0.873-.006,1.745l0.006,0.587q0,0.873-.006,1.745l0.006,0.587q0,0.873-.006,1.745l0.006,0.587q0,0.873-.006,1.745l0.006,0.587q0,0.873-.006,1.745l0.006,0.587q0,0.873-.006,1.745l0.006,0.587q0,0.873-.006,1.745l0.006,0.587q0,0.873-.006,1.745l0.006,0.587q0,0.873-.006,1.745l0.006,0.587q0,0.873-.006,1.745l0.006,0.587q0,0.873-.006,1.745l0.006,0.587q0,0.873-.006,1.745l0.006,0.587q0,0.873-.006,1.745l0.006,0.587-0.006,1.745Q490.846,48.685,490.1,48.5Z"/>
    <path class="cls-8" d="M520.082,15.874l0.006-1.745-0.006-.587L520.071,11.8l-0.143-.34a2.257,2.257,0,0,0-.812-0.67l-0.568-.063-1.745.006-0.587-.006-1.745.006a0.56,0.56,0,0,0-.518.448c-0.112.177-.241,0.344-0.362,0.515a8.422,8.422,0,0,1-1.707,1.868h1.184l0.587,0.006,1.745-.006,0.587,0.006c0.174-.008.348-0.021,0.522-0.022,0.787,0,.787,0,0.736.813l0.006,0.587q0,0.873-.006,1.745l0.006,0.587q0,0.873-.006,1.745l0.006,0.587q0,0.873-.006,1.745l0.006,0.587q0,0.873-.006,1.745l0.006,0.587q0,0.873-.006,1.745L517.25,26.6q0,0.873-.006,1.745l0.006,0.587q0,0.873-.006,1.745l0.006,0.587q0,0.873-.006,1.745L517.25,33.6q0,0.873-.006,1.745l0.006,0.587q0,0.873-.006,1.745l0.006,0.587q0,0.873-.006,1.745l0.006,0.587q0,0.873-.006,1.745l0.006,0.587q0,0.873-.006,1.745l0.006,0.587q0,0.873-.006,1.745l0.006,0.587c0.043,0.957.043,0.957-.915,0.915l-0.587-.006L514,48.505l-0.587-.006-1.745.006-0.587-.006-1.745.006-0.587-.006-1.745.006-0.587-.006-1.745.006-0.587-.006-1.745.006-0.587-.006-1.745.006-0.587-.006c-0.174.008-.348,0.021-0.522,0.022-0.787,0-.787,0-0.736-0.813l-0.006-.587,0.006-1.745-0.006-.587q0-.873.006-1.745l-0.006-.587q0-.931,0-1.862l0-.47q0-.931,0-1.862l0-.47q0-.873.006-1.745l-0.006-.587q0-.873.006-1.745l-0.006-.587q0-.873.006-1.745l-0.006-.587q0-.873.006-1.745l-0.006-.587q0-.873.006-1.745l-0.006-.586q0-.873.006-1.745l-0.006-.587q0-.873.006-1.745l-0.006-.587q0-.873.006-1.745l-0.006-.587q0-.873.006-1.745l-0.006-.587q0-.873.006-1.745l-0.006-.587c-0.043-.957-0.043-0.957.915-0.915l0.587,0.006h1.482l-0.557-.594a1.424,1.424,0,0,1-.463-0.477,3.025,3.025,0,0,1-.71-0.929,0.576,0.576,0,0,1-.228-0.351,0.892,0.892,0,0,0-1.041-.486l-0.587-.006c-1.838-.042-2.278.4-2.236,2.236l0.006,0.587q0,0.873-.006,1.745l0.006,0.587q0,0.873-.006,1.745l0.006,0.587q0,0.873-.006,1.745l0.006,0.587q0,0.873-.006,1.745l0.006,0.587q0,0.873-.006,1.745L495.33,25.2q0,0.873-.006,1.745l0.006,0.587q0,0.873-.006,1.745l0.006,0.587q0,0.873-.006,1.745L495.33,32.2q0,0.873-.006,1.745l0.006,0.587q0,0.873-.006,1.745l0.006,0.587q0,0.873-.006,1.745L495.33,39.2q0,0.873-.006,1.745l0.006,0.587q0,0.873-.006,1.745l0.006,0.587q0,0.873-.006,1.745l0.006,0.587q0,0.873-.006,1.745l0.006,0.587q0,0.873-.006,1.745l0.006,0.587L495.324,52.6l0.063,0.568a2.257,2.257,0,0,0,.67.812l0.34,0.143,1.747,0.011,0.587,0.006,1.745-.006,0.587,0.006,1.745-.006,0.587,0.006,1.745-.006,0.587,0.006,1.745-.006,0.587,0.006,1.745-.006,0.587,0.006,1.745-.006,0.587,0.006,1.745-.006,0.587,0.006,1.745-.006,0.587,0.006a14.827,14.827,0,0,0,1.764-.091A1.678,1.678,0,0,0,520,53.2a15.036,15.036,0,0,0,.09-1.763l-0.006-.587,0.006-1.745-0.006-.587,0.006-1.745-0.006-.587,0.006-1.745-0.006-.587,0.006-1.745-0.006-.587,0.006-1.745-0.006-.587,0.006-1.745-0.006-.587,0.006-1.745-0.006-.587,0.006-1.745-0.006-.587,0.006-1.745-0.006-.587,0.006-1.745-0.006-.587,0.006-1.745-0.006-.587,0.006-1.745-0.006-.587,0.006-1.745-0.006-.587,0.006-1.745-0.006-.587,0.006-1.745ZM507.693,52.251a0.933,0.933,0,1,1,.944-0.9A0.951,0.951,0,0,1,507.693,52.251Z"/>
    <path class="cls-8" d="M476.794,34.414a3.038,3.038,0,0,0,.373-0.927h0a0.248,0.248,0,0,0,.115-0.24c0.5-.983.925-2,1.335-3.024a2.3,2.3,0,0,0,.319-0.8l-0.009-.011a0.279,0.279,0,0,0,.127-0.239,30.925,30.925,0,0,0,1.285-2.929L480.541,26a3.22,3.22,0,0,1,1.362.152,1.317,1.317,0,0,0,.256.593l0.442,1.047,0.26,0.582,0.441,1.049,0.26,0.58a4.34,4.34,0,0,0,.451,1.046l0.25,0.584a4.19,4.19,0,0,0,.453,1.046l0.248,0.584a4.086,4.086,0,0,0,.455,1.047c0.066,0.285-.113.318-0.326,0.317-0.459-.189-0.988.108-1.429-0.206l-0.166-.36a6.266,6.266,0,0,0-.514-1.275,0.562,0.562,0,0,0-.577-0.124l-1.752.005-0.578-.006a0.864,0.864,0,0,0-1.176.785c-0.036.167-.085,0.332-0.128,0.5l0.011,0-0.1.124a0.662,0.662,0,0,1-.6.529A3.282,3.282,0,0,1,476.794,34.414Zm3.16-3.5a0.233,0.233,0,0,0-.106.235,0.194,0.194,0,0,0,.222.137h2.286a12.9,12.9,0,0,0-.673-1.876l-0.162-.372a3.208,3.208,0,0,0-.465-1.147L480.243,30.1a2.645,2.645,0,0,0-.29.813v0Z"/>
    <path class="cls-8" d="M504.588,34.511l-0.073-.45q0.005-.872.01-1.744-0.005-.294-0.01-0.588,0.005-.872.01-1.744-0.005-.294-0.01-0.588,0.005-.872.01-1.744-0.005-.294-0.01-0.588a0.925,0.925,0,0,0,.02-0.113c0.057-1.015.057-1.015,1.069-1.07h2.332l0.583,0.03a5.852,5.852,0,0,1,1.176.456L510,26.611a2.727,2.727,0,0,1,.522,1.271l-0.011.587a2.17,2.17,0,0,1-1.415,1.457,4.738,4.738,0,0,1,1.141.542l0.224,0.226a2.8,2.8,0,0,1,.421,1.386q-0.028.345-.056,0.691a2.8,2.8,0,0,1-1.5,1.495l-0.688.163-1.864.1-0.582,0Zm4.283-6.627a0.54,0.54,0,0,0-.323-0.388,2.244,2.244,0,0,0-1.538-.265c-0.961-.094-0.961-0.094-0.935.831,0,0.057.01,0.114,0.016,0.171-0.054,1.4-.087,1.17.794,1.139l0.478,0.006A3.716,3.716,0,0,0,508,29.348,1.008,1.008,0,0,0,508.872,27.884ZM506.1,30.8l0,1.514c-0.036.845-.036,0.847,0.8,0.844,0.271,0,.542-0.016.813-0.025,1.246,0.012,1.7-.422,1.6-1.517-0.223-.687-0.619-0.894-1.713-0.9h-1.4A0.065,0.065,0,0,0,506.1,30.8Z"/>
    <path class="cls-8" d="M508.636,4.2L509.223,4.2a2.688,2.688,0,0,1-.543,1.143c-0.347.679-.737,1.336-1.109,2l0.011,0-0.161.237a5.613,5.613,0,0,0-.652,1.17h0l-0.138.229a8.546,8.546,0,0,0-.53.864c-0.154.329-.334,0.362-0.6,0.156l-0.09-.09a6.42,6.42,0,0,0-1.076-1.076l-0.09-.09-0.878-.92a0.887,0.887,0,0,1,.486-0.444,0.332,0.332,0,0,0,.11-0.031,0.677,0.677,0,0,1,1.151.256,0.908,0.908,0,0,0,.444.62c0.292-.017.283-0.439,0.389-0.689a1.879,1.879,0,0,0,.251-0.759l0,0a0.239,0.239,0,0,0,.109-0.24c0.243-.582.511-1.154,0.72-1.748a0.711,0.711,0,0,1,.866-0.592A4.165,4.165,0,0,0,508.636,4.2Z"/>
  </g>
  <g id="skillsIcon-5" class="skillsIcon">
    <g>
      <polygon class="cls-8" points="570.606 46.156 570.612 46.147 570.606 46.156 570.606 46.156"/>
      <path class="cls-8" d="M613.216,49.168a8.025,8.025,0,0,1-.855-1.068,0.478,0.478,0,0,1-.216-0.277,4.7,4.7,0,0,1-.7-0.867l-0.32-.405a4.159,4.159,0,0,1-.64-0.812l-0.18-.178a6.641,6.641,0,0,0-.717-0.462c-0.3-.144-0.252-0.3-0.083-0.5l0.173-.714,0.03-1.54-0.009-.512a9.292,9.292,0,0,1,.009-1.537l-0.009-.512a9.292,9.292,0,0,1,.009-1.537l-0.009-.512a9.292,9.292,0,0,1,.009-1.537l-0.009-.512a9.292,9.292,0,0,1,.009-1.537L609.7,33.64a9.292,9.292,0,0,1,.009-1.537l-0.009-.512a9.292,9.292,0,0,1,.009-1.537l-0.009-.512a9.292,9.292,0,0,1,.009-1.537l-0.009-.512a9.292,9.292,0,0,1,.009-1.537l-0.009-.512a9.292,9.292,0,0,1,.009-1.537L609.7,23.4a9.292,9.292,0,0,1,.009-1.537l-0.009-.512a9.292,9.292,0,0,1,.009-1.537L609.7,19.3a9.292,9.292,0,0,1,.009-1.537l-0.009-.512,0-1.537-0.086-.411-0.343-.877-0.366-.456-0.738-.538-0.314-.162a6.528,6.528,0,0,0-1.429-.132l-0.515-.005-1.533.005-0.515-.005-1.533.005-0.515-.005-1.533.005-0.515-.005-1.533.005-0.515-.005-1.533.005-0.515-.005-1.533.005-0.515-.005-1.533.005-0.515-.005-1.533.005-0.515-.005-1.533.005-0.515-.005-1.533.005-0.515-.005-1.533.005-0.515-.005-1.533.005-0.515-.005-1.533.005-0.515-.005-1.533.005-0.515-.005-1.533.005-0.515-.005-1.533.005-0.515-.005-1.533.005-0.515-.005-1.533.005-0.515-.005a8.8,8.8,0,0,0-1.637.118,5.007,5.007,0,0,0-1.109.663l-0.078.078a5.8,5.8,0,0,0-.642,1.107l-0.124,1.64,0.008,0.513-0.008,1.536L565.46,19.3l-0.008,1.536,0.008,0.513-0.008,1.536L565.46,23.4l-0.008,1.536,0.008,0.513-0.008,1.536,0.008,0.513-0.008,1.536,0.008,0.513-0.008,1.536,0.008,0.513-0.008,1.536,0.008,0.513-0.008,1.536,0.008,0.513-0.008,1.536,0.008,0.513-0.008,1.536,0.008,0.513-0.008,1.536,0.008,0.513-0.008,1.536,0.024,0.51a6.637,6.637,0,0,0,.27.815,0.254,0.254,0,0,1-.145.417,2.591,2.591,0,0,0-1.014.754,36.725,36.725,0,0,0-3.227,4.367V50.95a2.963,2.963,0,0,0,1.151,1.174l0.526,0.24,1.189,0.135,0.515,0.006,1.534-.006,0.515,0.006,1.534-.006L568.84,52.5l1.534-.005,0.515,0.006,1.534-.006,0.515,0.006,1.533-.006,0.515,0.006,1.534-.006,0.515,0.006,1.534-.006,0.515,0.006,1.534-.006,0.515,0.006,1.533-.005,0.515,0.006,1.533-.006,0.515,0.006,1.533-.006,0.515,0.006,1.533-.006,0.515,0.006,1.533-.005,0.515,0.006,1.533-.006,0.515,0.006,1.533-.006,0.515,0.006,1.533-.006,0.515,0.006,1.533-.006,0.515,0.006L601.1,52.5l0.515,0.006,1.533-.005,0.515,0.006L605.2,52.5l0.515,0.006,1.533-.006,0.515,0.006L609.3,52.5l0.515,0.006,1.533-.006,0.618-.1c0.187-.078.378-0.148,0.561-0.236A1.753,1.753,0,0,0,613.216,49.168Zm-45.2-16.86a9.575,9.575,0,0,1,.008-1.536l-0.008-.512a9.575,9.575,0,0,1,.008-1.536l-0.008-.512a9.575,9.575,0,0,1,.008-1.536l-0.008-.512a9.575,9.575,0,0,1,.008-1.536l-0.008-.512a9.575,9.575,0,0,1,.008-1.536l-0.008-.512a9.575,9.575,0,0,1,.008-1.536l-0.008-.512a9.575,9.575,0,0,1,.008-1.536l-0.008-.512,0.005-1.537c-0.071-.792-0.007-0.853.822-0.788l1.529,0,0.416,0.006,1.633-.006,0.416,0.006,1.633-.006,0.416,0.006,1.633-.006,0.416,0.006,1.633-.006,0.416,0.006,1.633-.006,0.416,0.006,1.633-.006,0.416,0.006,1.633-.006,0.416,0.006,1.633-.006,0.416,0.006,1.633-.006,0.416,0.006,1.633-.006,0.416,0.006,1.633-.006,0.416,0.006,1.633-.006,0.416,0.006L597,15.639l0.416,0.006,1.632-.008,0.521,0.006,1.529,0,0.416,0.006,1.633-.006,0.416,0.006,1.633-.006,0.416,0.006,1.174-.024c0.275-.006.431,0.093,0.352,0.4l0.008,0.513-0.008,1.536,0.008,0.513-0.008,1.536,0.008,0.513-0.008,1.536,0.008,0.513-0.008,1.536,0.008,0.513-0.008,1.536,0.008,0.513-0.008,1.536,0.008,0.512-0.008,1.536,0.008,0.512-0.008,1.536,0.008,0.512-0.008,1.536,0.008,0.512-0.008,1.536,0.008,0.512-0.008,1.536,0.008,0.512L607.142,40.6l0.008,0.512-0.006,1.536c0.129,1.25.062,1.312-1.229,1.141a7.947,7.947,0,0,1-1.434,0,0.925,0.925,0,0,1-.507-0.01,8.376,8.376,0,0,1-1.541.01,0.925,0.925,0,0,1-.507-0.01,8.376,8.376,0,0,1-1.541.01,0.925,0.925,0,0,1-.507-0.01,8.321,8.321,0,0,1-1.541.01,0.93,0.93,0,0,1-.508-0.01,8.259,8.259,0,0,1-1.541.01,0.93,0.93,0,0,1-.508-0.01,8.212,8.212,0,0,1-1.541.01,0.934,0.934,0,0,1-.508-0.01,8.162,8.162,0,0,1-1.54.01,0.934,0.934,0,0,1-.508-0.01,8.162,8.162,0,0,1-1.54.01,0.936,0.936,0,0,1-.508-0.01,8.254,8.254,0,0,1-1.541.011,0.927,0.927,0,0,1-.507-0.01,8.374,8.374,0,0,1-1.541.01,0.926,0.926,0,0,1-.507-0.01,8.314,8.314,0,0,1-1.541.01,0.931,0.931,0,0,1-.508-0.01,8.212,8.212,0,0,1-1.541.01,0.935,0.935,0,0,1-.508-0.01,8.16,8.16,0,0,1-1.54.01,0.937,0.937,0,0,1-.508-0.01,8.254,8.254,0,0,1-1.541.011,0.927,0.927,0,0,1-.507-0.01,8.376,8.376,0,0,1-1.541.01,0.926,0.926,0,0,1-.507-0.01,8.31,8.31,0,0,1-1.541.01,0.933,0.933,0,0,1-.508-0.01,8.3,8.3,0,0,1-1.541.01,0.927,0.927,0,0,1-.507-0.01,8.374,8.374,0,0,1-1.541.01,0.926,0.926,0,0,1-.507-0.01c-0.149.011-.3,0.031-0.448,0.033-0.744.01-.744,0.008-0.675-0.758l-0.008-.512a9.585,9.585,0,0,1,.008-1.536l-0.008-.512a9.585,9.585,0,0,1,.008-1.536l-0.008-.512a9.58,9.58,0,0,1,.008-1.536l-0.008-.512a9.58,9.58,0,0,1,.008-1.536l-0.008-.512a9.565,9.565,0,0,1,.008-1.536Zm40.87,16.052a0.978,0.978,0,0,1-1.02.224l-0.515-.006-1.534.006-0.515-.006-1.534.007-0.515-.006-1.534.007h0L601.2,48.58l-1.534.007-0.515-.006-1.534.007-0.515-.006-1.534.007-0.514,0h0l-0.006.514c0.022,0.1.046,0.195,0.065,0.293,0.094,0.5-.016.634-0.529,0.643-0.15,0-.3-0.011-0.449-0.018l-0.514-.008-1.535.006-0.514-.007-1.535.006-0.514-.007-1.535.006-0.514-.007-1.534.006-0.514-.007-1.534.006-0.514-.007-1.534.006-0.514-.007-0.176.014c-0.059,0-.118.008-0.176,0.009-0.759.008-.825-0.076-0.661-0.826l0.017-.516a3.544,3.544,0,0,0-1.152-.109l-0.515-.006-1.534.006-0.515-.006-1.534.006-0.515-.006-1.534.007-0.463-.006,0,0.009-1.546.006,0-.01H570.99l-0.479-.006,0,0.009-1.546.007-0.519-.006L566.9,48.6a0.58,0.58,0,0,1-.521-0.082,0.326,0.326,0,0,1-.209-0.319,0.805,0.805,0,0,1,.089-0.3,6.04,6.04,0,0,1,.826-1.333,1.216,1.216,0,0,1,.151-0.152,1.65,1.65,0,0,1,1.313-.267l0.521,0.007,1.543-.006,0.521,0.006,1.543-.006-0.006.01,0.473,0.006h0.048l0.006-.009,1.543-.006-0.006.01,0.457,0.006,1.532-.006,0.517,0.006,1.532-.006,0.517,0.006,1.531-.006h0l0.517,0.006,1.532-.006,0.414,0.006,1.634-.006,0.414,0.006,1.634-.006,0.414,0.006,1.634-.006,0.414,0.006,1.634-.006,0.414,0.006,1.634-.006,0.414,0.006,1.634-.006,0.414,0.006,1.634-.007,0.517,0.006,1.532-.006,0.517,0.006,1.532-.006,0.517,0.006,1.532-.006,0.517,0.006,1.532-.006,0.517,0.006c0.182-.009.365-0.019,0.547-0.024l0.182,0a4.764,4.764,0,0,1,.728.044,1.38,1.38,0,0,1,.269.09,0.693,0.693,0,0,1,.228.169,2,2,0,0,1,.611.812,0.55,0.55,0,0,1,.195.329A0.666,0.666,0,0,1,608.885,48.361Z"/>
    </g>
    <path class="cls-8" d="M572.639,30.46l-0.129-.407a1.97,1.97,0,0,1,.877-1.839c1.81-1.451,3.594-2.933,5.388-4.4a0.231,0.231,0,0,0,.206-0.1h0l0.511-.105a2.6,2.6,0,0,1,1.091.329l0.327,0.315a2.219,2.219,0,0,1,.341,1.1l-0.042.386,0.007,0.008a0.232,0.232,0,0,0-.092.22,8.725,8.725,0,0,1-1.439,1.407l-0.117.111,0.006-.009a0.212,0.212,0,0,0-.18.135l-0.218.182q-1.11.885-2.219,1.771c-0.3.238-.044,0.32,0.128,0.422a4.756,4.756,0,0,0,.853.7l0.272,0.217a4.733,4.733,0,0,0,.854.705l0.271,0.218a4.846,4.846,0,0,0,.857.706,0.459,0.459,0,0,0,.269.211,3.663,3.663,0,0,1,.755.967l0.034,0.347a1.685,1.685,0,0,1-1.859,1.785l-0.513-.14-0.717-.519a0.442,0.442,0,0,0-.275-0.215,4.382,4.382,0,0,0-.852-0.707,0.45,0.45,0,0,0-.275-0.215,4.379,4.379,0,0,0-.85-0.707,0.449,0.449,0,0,0-.277-0.215,4.364,4.364,0,0,0-.849-0.707,0.457,0.457,0,0,0-.277-0.215,4.326,4.326,0,0,0-.85-0.707,0.455,0.455,0,0,0-.276-0.216Z"/>
    <path class="cls-8" d="M602.342,28.721l0.253,0.474a1.967,1.967,0,0,1-.2,1.467l-0.591.568q-2.479,2.019-4.955,4.042a2.4,2.4,0,0,1-1.074.561l-0.516-.022a2.283,2.283,0,0,1-.877-0.454l-0.236-.285a2.174,2.174,0,0,1-.19-1.325,3.388,3.388,0,0,1,1.272-1.4c0.325-.268.641-0.547,0.961-0.821l0.113-.131-0.009.016a0.221,0.221,0,0,0,.195-0.127l0.213-.176c0.491-.391.98-0.784,1.474-1.17,0.2-.16.218-0.288-0.035-0.4a0.5,0.5,0,0,0-.272-0.215,4.648,4.648,0,0,0-.855-0.706,0.48,0.48,0,0,0-.272-0.217,4.546,4.546,0,0,0-.855-0.705,0.454,0.454,0,0,0-.272-0.213,4.372,4.372,0,0,0-.856-0.71l-0.329-.281a2.632,2.632,0,0,1-.513-0.937l-0.006-.513a1.837,1.837,0,0,1,1.449-1.431l0.506,0.022a3.38,3.38,0,0,1,.924.488,0.453,0.453,0,0,0,.276.216,4.409,4.409,0,0,0,.85.706,0.457,0.457,0,0,0,.276.216,4.4,4.4,0,0,0,.85.707,0.461,0.461,0,0,0,.276.216,4.364,4.364,0,0,0,.85.706,0.459,0.459,0,0,0,.276.216,4.379,4.379,0,0,0,.849.707,0.467,0.467,0,0,0,.276.216Z"/>
    <path class="cls-8" d="M591.231,21.476l0.428,0.222a1.536,1.536,0,0,1,.466.877l-0.034.514c-0.481.941-.94,1.892-1.344,2.869a3.2,3.2,0,0,0-.414.9l0,0a0.235,0.235,0,0,0-.109.212,25.987,25.987,0,0,0-1.241,2.639L589,29.729l-0.139.217a3.281,3.281,0,0,0-.361.822l0,0a0.217,0.217,0,0,0-.1.209c-0.479.865-.871,1.771-1.273,2.673a4.659,4.659,0,0,0-.459,1.019v0a0.2,0.2,0,0,0-.1.2l-1.29,2.655-0.269.258a1.42,1.42,0,0,1-1.418.05l-0.309-.294a1.6,1.6,0,0,1-.224-1.028l0.325-.821h0a0.207,0.207,0,0,0,.1-0.2c0.465-.869.873-1.764,1.26-2.669a5.208,5.208,0,0,0,.514-1.109c0.48-.906.912-1.835,1.309-2.78a3.181,3.181,0,0,0,.415-0.908h0a0.23,0.23,0,0,0,.108-0.212,25.393,25.393,0,0,0,1.242-2.648l-0.013,0,0.133-.216a3.077,3.077,0,0,0,.366-0.825h0a0.213,0.213,0,0,0,.1-0.207c0.252-.512.507-1.022,0.755-1.536A1.321,1.321,0,0,1,591.231,21.476Z"/>
  </g>
</svg>
