<?xml version="1.0" encoding="utf-8"?>
<!-- Generator: Adobe Illustrator 18.1.1, SVG Export Plug-In . SVG Version: 6.00 Build 0)  -->
<svg version="1.1" id="Layer_1" xmlns="http://www.w3.org/2000/svg" xmlns:xlink="http://www.w3.org/1999/xlink" x="0px" y="0px"
	 viewBox="0 0 142.089 29.544" enable-background="new 0 0 142.089 29.544" xml:space="preserve">
<path fill="#F36C21" d="M37.738,0.873L3.878,25.929V2.435c0.007,0.006,7.009,6.734,12.697,12.188c0,0,0.259,0.228,1.081-0.38
	c0.823-0.609,0.58-0.85,0.58-0.85C12.788,8.147,5.988,1.605,5.237,0.918V0.917C4.548,0.286,3.688,0,2.865,0
	C1.38,0,0.015,0.939,0,2.492v23.316c0.024,3.435,3.227,4.914,6.532,2.661L40.23,3.177l-0.007,20.354c0,0-3.588-7.112-6.744-13.365
	c0,0-0.167-0.347-0.983,0.261c-0.817,0.613-0.604,0.931-0.604,0.931c2.612,5.176,5.506,10.91,6.435,12.732
	c1.017,1.995,3.981,1.33,3.981-0.754V2.405C42.291,0.08,40.11-0.787,37.738,0.873"/>
<path fill="#F36C21" d="M26.14,15.195c-1.001,0.752-1.001,1.23-1.001,1.23v3.62c0,0-0.817-0.788-2.111-2.035
	c0,0-0.261-0.242-1.077,0.373c-0.818,0.612-0.556,0.854-0.556,0.854c1.16,1.106,1.983,1.891,2.25,2.137
	c1.433,1.321,3.497,0.45,3.497-1.133v-5.316C27.141,14.925,27.141,14.444,26.14,15.195"/>
<path fill="#F36C21" d="M26.14,7.971c1.001-0.741,1.001-1.166,1.001-1.166v-4.87c0,0,0.715,1.423,1.788,3.547
	c0,0,0.124,0.256,0.895-0.315c0.819-0.606,0.694-0.862,0.694-0.862c-0.892-1.766-1.524-3.023-1.689-3.344
	c-0.808-1.59-3.691-1.123-3.691,0.798v6.526C25.138,8.284,25.138,8.712,26.14,7.971"/>
<polygon fill="#474C55" points="61.094,21.919 59.64,21.919 54.15,5.215 56.027,5.215 60.367,18.728 64.707,5.215 66.584,5.215 "/>
<path fill="#474C55" d="M73.131,13.403c-0.446-1.056-1.478-1.736-2.698-1.736c-1.22,0-2.252,0.681-2.698,1.736
	c-0.258,0.633-0.305,0.985-0.351,1.924h6.1C73.435,14.389,73.389,14.036,73.131,13.403 M67.383,16.594
	c0,2.533,1.196,3.988,3.402,3.988c1.338,0,2.111-0.399,3.026-1.314l1.15,1.008c-1.173,1.174-2.252,1.783-4.223,1.783
	c-3.05,0-5.044-1.83-5.044-5.912c0-3.73,1.806-5.912,4.739-5.912c2.979,0,4.739,2.158,4.739,5.584v0.774H67.383z"/>
<path fill="#474C55" d="M83.531,12.582c-0.633-0.633-1.103-0.845-1.994-0.845c-1.688,0-2.768,1.338-2.768,3.097v7.085H77.08V10.377
	h1.689v1.408c0.633-0.962,1.9-1.549,3.237-1.549c1.102,0,1.948,0.258,2.768,1.08L83.531,12.582z"/>
<path fill="#474C55" d="M90.151,21.919c-1.971,0-2.956-1.384-2.956-3.096v-7.086H85.74v-1.29h1.455V6.835h1.689v3.612h2.463v1.29
	h-2.463v7.039c0,1.056,0.493,1.689,1.572,1.689h0.891v1.455H90.151z"/>
<path fill="#474C55" d="M99.844,16.594h-3.237c-1.736,0-2.581,0.704-2.581,2.041c0,1.338,0.821,1.971,2.651,1.971
	c0.985,0,1.854-0.07,2.58-0.774c0.399-0.375,0.586-1.032,0.586-1.994V16.594z M99.844,21.919v-1.103
	c-0.939,0.938-1.783,1.243-3.331,1.243c-1.595,0-2.534-0.306-3.261-1.056c-0.563-0.563-0.868-1.431-0.868-2.346
	c0-2.018,1.408-3.331,3.988-3.331h3.472v-1.103c0-1.689-0.845-2.533-2.956-2.533c-1.478,0-2.229,0.352-2.909,1.314l-1.15-1.056
	c1.032-1.337,2.206-1.713,4.082-1.713c3.097,0,4.622,1.338,4.622,3.848v7.836H99.844z"/>
<path fill="#474C55" d="M105.939,11.737v10.182h-1.689V11.737h-1.478v-1.29h1.478V8.265c0-1.712,0.962-3.096,2.933-3.096h1.22v1.454
	h-0.915c-1.079,0-1.548,0.634-1.548,1.69v2.135h2.463v1.29H105.939z"/>
<path fill="#474C55" d="M115.819,12.582c-0.54-0.54-1.291-0.845-2.112-0.845c-0.821,0-1.548,0.305-2.088,0.845
	c-0.844,0.845-0.938,2.276-0.938,3.566c0,1.291,0.094,2.722,0.938,3.566c0.54,0.539,1.267,0.844,2.088,0.844
	c0.822,0,1.573-0.305,2.112-0.844c0.844-0.844,0.914-2.275,0.914-3.566C116.733,14.858,116.663,13.427,115.819,12.582
	 M117.015,20.746c-0.798,0.798-1.9,1.314-3.308,1.314c-1.407,0-2.51-0.516-3.308-1.314c-1.173-1.196-1.407-2.815-1.407-4.598
	c0-1.783,0.234-3.402,1.407-4.598c0.798-0.798,1.9-1.314,3.308-1.314c1.408,0,2.511,0.516,3.308,1.314
	c1.173,1.196,1.408,2.815,1.408,4.598C118.423,17.931,118.188,19.55,117.015,20.746"/>
<path fill="#474C55" d="M126.419,12.582c-0.633-0.633-1.102-0.845-1.994-0.845c-1.689,0-2.769,1.338-2.769,3.097v7.085h-1.689
	V10.377h1.689v1.408c0.633-0.962,1.9-1.549,3.237-1.549c1.102,0,1.948,0.258,2.768,1.08L126.419,12.582z"/>
<path fill="#474C55" d="M135.17,13.403c-0.446-1.056-1.478-1.736-2.698-1.736c-1.22,0-2.252,0.681-2.697,1.736
	c-0.258,0.633-0.305,0.985-0.352,1.924h6.1C135.475,14.389,135.428,14.036,135.17,13.403 M129.422,16.594
	c0,2.533,1.197,3.988,3.402,3.988c1.338,0,2.112-0.399,3.027-1.314L137,20.277c-1.173,1.174-2.252,1.783-4.223,1.783
	c-3.05,0-5.044-1.83-5.044-5.912c0-3.73,1.807-5.912,4.739-5.912c2.98,0,4.739,2.158,4.739,5.584v0.774H129.422z"/>
<g>
	<path fill="#474C55" d="M140.496,13.42c-0.88,0-1.592-0.712-1.592-1.591c0-0.88,0.712-1.593,1.592-1.593s1.592,0.713,1.592,1.593
		C142.089,12.707,141.376,13.42,140.496,13.42z M140.496,10.531c-0.712,0-1.275,0.572-1.275,1.298c0,0.725,0.563,1.297,1.275,1.297
		c0.713,0,1.271-0.572,1.271-1.297C141.768,11.102,141.209,10.531,140.496,10.531z M140.831,12.685l-0.352-0.681h-0.22v0.681h-0.317
		v-1.719h0.647c0.325,0,0.554,0.242,0.554,0.528c0,0.242-0.148,0.4-0.339,0.466l0.383,0.725H140.831z M140.549,11.234h-0.291v0.519
		h0.291c0.167,0,0.281-0.115,0.281-0.26C140.831,11.349,140.717,11.234,140.549,11.234z"/>
</g>
</svg>
